<svg width="105" height="34" viewBox="0 0 105 34" fill="none" xmlns="http://www.w3.org/2000/svg">
<path d="M15.8477 5.68359H19.7852L28.6445 24H24.7422L23.2773 20.918H12.5781L11.1602 24H7.24609L15.8477 5.68359ZM21.8125 17.8594L17.8516 9.53906L13.9961 17.8594H21.8125ZM31.1523 4.55859H34.6211V24H31.1523V4.55859ZM39.168 4.55859H42.6367V24H39.168V4.55859ZM47.0898 10.1602H50.5469V16.9102C50.5469 17.5508 50.6172 18.1367 50.7578 18.668C50.8984 19.1914 51.1367 19.6406 51.4727 20.0156C51.8164 20.3906 52.2695 20.6836 52.832 20.8945C53.4023 21.0977 54.1094 21.1992 54.9531 21.1992C55.3516 21.1992 55.7539 21.1562 56.1602 21.0703C56.5742 20.9844 56.9688 20.8672 57.3438 20.7188C57.7188 20.5625 58.0664 20.3789 58.3867 20.168C58.7148 19.957 58.9961 19.7266 59.2305 19.4766V10.1602H62.6992V24H59.2305V22.8164C58.3789 23.3242 57.5234 23.6875 56.6641 23.9062C55.8047 24.125 54.9883 24.2344 54.2148 24.2344C52.9492 24.2344 51.8633 24.082 50.957 23.7773C50.0586 23.4727 49.3203 23.0312 48.7422 22.4531C48.1719 21.8672 47.7539 21.1523 47.4883 20.3086C47.2227 19.457 47.0898 18.4883 47.0898 17.4023V10.1602ZM67.1992 10.1719H70.668V11.3438C71.5352 10.8125 72.3789 10.4453 73.1992 10.2422C74.0273 10.0312 74.8359 9.92578 75.625 9.92578C76.7266 9.92578 77.7383 10.1016 78.6602 10.4531C79.582 10.8047 80.3711 11.3359 81.0273 12.0469C81.5352 11.6562 82.0352 11.3281 82.5273 11.0625C83.0195 10.7891 83.5117 10.5703 84.0039 10.4062C84.4961 10.2344 84.9961 10.1133 85.5039 10.043C86.0117 9.96484 86.5352 9.92578 87.0742 9.92578C88.207 9.92578 89.2344 10.082 90.1562 10.3945C91.0781 10.6992 91.8633 11.1562 92.5117 11.7656C93.168 12.375 93.6719 13.1367 94.0234 14.0508C94.3828 14.957 94.5625 16.0078 94.5625 17.2031V24H91.1055V17.7656C91.1055 17.0078 90.9961 16.332 90.7773 15.7383C90.5664 15.1367 90.2656 14.6328 89.875 14.2266C89.4922 13.8125 89.0312 13.5 88.4922 13.2891C87.9609 13.0703 87.375 12.9609 86.7344 12.9609C86.3828 12.9609 86.0234 12.9961 85.6562 13.0664C85.2891 13.1289 84.9297 13.2305 84.5781 13.3711C84.2344 13.5117 83.9102 13.6914 83.6055 13.9102C83.3008 14.1211 83.0352 14.3711 82.8086 14.6602V24H79.3516V17.7656C79.3516 17.0078 79.2422 16.332 79.0234 15.7383C78.8125 15.1367 78.5117 14.6328 78.1211 14.2266C77.7383 13.8125 77.2734 13.5 76.7266 13.2891C76.1875 13.0703 75.5938 12.9609 74.9453 12.9609C74.5469 12.9609 74.1445 13.0039 73.7383 13.0898C73.3398 13.168 72.9531 13.2812 72.5781 13.4297C72.2109 13.5781 71.8633 13.7578 71.5352 13.9688C71.2148 14.1797 70.9258 14.418 70.668 14.6836V24H67.1992V10.1719ZM100.762 8.28516C100.418 8.28516 100.105 8.23828 99.8242 8.14453C99.5508 8.04297 99.3164 7.91016 99.1211 7.74609C98.9258 7.57422 98.7734 7.37891 98.6641 7.16016C98.5625 6.93359 98.5117 6.69531 98.5117 6.44531C98.5117 6.1875 98.5625 5.94922 98.6641 5.73047C98.7734 5.50391 98.9258 5.30859 99.1211 5.14453C99.3164 4.98047 99.5508 4.85156 99.8242 4.75781C100.105 4.65625 100.418 4.60547 100.762 4.60547C101.113 4.60547 101.426 4.65625 101.699 4.75781C101.98 4.85156 102.219 4.98047 102.414 5.14453C102.609 5.30859 102.758 5.50391 102.859 5.73047C102.969 5.94922 103.023 6.1875 103.023 6.44531C103.023 6.69531 102.969 6.93359 102.859 7.16016C102.758 7.37891 102.609 7.57422 102.414 7.74609C102.219 7.91016 101.98 8.04297 101.699 8.14453C101.426 8.23828 101.113 8.28516 100.762 8.28516ZM99.0273 10.1719H102.496V24H99.0273V10.1719Z" fill="white"/>
<path d="M14.4019 4.5C15.5566 2.5 18.4434 2.5 19.5981 4.5L29.1244 21C30.2791 23 28.8357 25.5 26.5263 25.5H7.47372C5.16432 25.5 3.72094 23 4.87564 21L14.4019 4.5Z" fill="url(#paint0_linear_3_80)"/>
<path d="M14.4019 11.5C15.5566 9.5 18.4434 9.5 19.5981 11.5L23.0622 17.5C24.2169 19.5 22.7735 22 20.4641 22H13.5359C11.2265 22 9.78312 19.5 10.9378 17.5L14.4019 11.5Z" fill="black"/>
<defs>
<linearGradient id="paint0_linear_3_80" x1="17" y1="0" x2="17" y2="34" gradientUnits="userSpaceOnUse">
<stop stop-color="#49C4CC"/>
<stop offset="1" stop-color="#0D1E1F"/>
</linearGradient>
</defs>
</svg>
